<svg xmlns="http://www.w3.org/2000/svg" xmlns:xlink="http://www.w3.org/1999/xlink" version="1.1" x="0px" y="0px" viewBox="0 0 33 33" enable-background="new 0 0 33 33" xml:space="preserve"><path d="M22.622,26.709l-0.455-4.41c13.223-8.469,10-20.744,9.959-20.889l-0.117-0.418L31.59,0.875  c-0.145-0.041-12.42-3.266-20.887,9.959l-4.412-0.455c-0.564-0.059-1.248,0.303-1.52,0.799l-3.34,6.135  c-0.271,0.498-0.039,0.811,0.518,0.695l5.695-1.188C7.426,17.361,7.208,17.91,7,18.488l-0.166,0.461l2.869,2.869  c-1.164,1.479-1.771,2.629-1.459,2.939c0.309,0.311,1.459-0.297,2.938-1.461l2.869,2.869L14.514,26  c0.576-0.207,1.125-0.424,1.666-0.645l-1.188,5.695c-0.115,0.557,0.197,0.787,0.695,0.516l6.133-3.338  C22.319,27.957,22.678,27.273,22.622,26.709z M14.448,24.377l-2.078-2.08c0.502-0.445,1.02-0.924,1.547-1.451  c2.646-2.646,4.398-5.188,3.912-5.674s-3.027,1.266-5.674,3.912c-0.527,0.527-1.006,1.045-1.451,1.547l-2.08-2.078  C15.481,0.141,28.18,1.734,30.737,2.262C31.266,4.818,32.86,17.52,14.448,24.377z"/><path d="M26.639,6.359c-1.893-1.893-4.973-1.893-6.867,0c-1.893,1.895-1.893,4.975,0,6.867c1.895,1.895,4.975,1.895,6.867,0  C28.534,11.334,28.534,8.254,26.639,6.359z M20.502,12.498c-1.492-1.49-1.49-3.918,0-5.408c1.49-1.492,3.918-1.492,5.408,0  c1.492,1.49,1.492,3.918,0,5.408C24.42,13.988,21.993,13.99,20.502,12.498z"/><circle cx="23.207" cy="9.794" r="2.965"/><path d="M11.336,24.756l-2.695,3.961l-6.129,1.771l1.771-6.131l3.961-2.693l-4.945,1.285c-0.549,0.141-1.094,0.713-1.211,1.27  l-1.566,7.463c-0.117,0.555,0.242,0.912,0.797,0.797l7.463-1.566c0.555-0.117,1.127-0.662,1.27-1.211L11.336,24.756z"/></svg>